<?xml version="1.0" encoding="UTF-8" standalone="no" ?>
<!DOCTYPE svg PUBLIC "-//W3C//DTD SVG 1.1//EN" "http://www.w3.org/Graphics/SVG/1.1/DTD/svg11.dtd">
<svg xmlns="http://www.w3.org/2000/svg" xmlns:xlink="http://www.w3.org/1999/xlink" version="1.1" width="230.32999999999998" height="235.45999999999998" xml:space="preserve">
<desc>Created with Fabric.js 1.6.0-rc.1</desc>
<defs></defs>
<g style="stroke: none; stroke-width: 1; stroke-dasharray: none; stroke-linecap: butt; stroke-linejoin: miter; stroke-miterlimit: 10; fill: #006699; fill-rule: nonzero; opacity: 1;" transform="translate(10 10) scale(0.41 0.42)" >
  <path d="M 509.095 217.331 C 490.453 94.295 384.239 0 256 0 C 114.615 0 0 114.616 0 256 c 0 136.75 107.224 248.448 242.184 255.626 L 509.095 217.331 z" style="stroke: none; stroke-width: 1; stroke-dasharray: none; stroke-linecap: butt; stroke-linejoin: miter; stroke-miterlimit: 10; fill: #1f1147; fill-rule: nonzero; opacity: 1;" transform=" matrix(1 0 0 1 0 0) " stroke-linecap="round" />
  <path d="M 512 256 c 0 -13.145 -0.994 -26.057 -2.905 -38.669 L 374.056 82.292 L 203.208 472.651 l 38.975 38.975 C 246.758 511.87 251.364 512 256 512 C 397.384 512 512 397.384 512 256 z" style="stroke: none; stroke-width: 1; stroke-dasharray: none; stroke-linecap: butt; stroke-linejoin: miter; stroke-miterlimit: 10; fill: #1f1147; fill-rule: nonzero; opacity: 1;" transform=" matrix(1 0 0 1 0 0) " stroke-linecap="round" />
  <path d="M 422.957 200.348 c 0 -92.208 -74.749 -166.957 -166.957 -166.957 l -89.043 166.957 L 256 394.738 l 66.783 -11.13 l 63.391 -78.726 C 409.18 276.269 422.957 239.92 422.957 200.348 z" style="stroke: none; stroke-width: 1; stroke-dasharray: none; stroke-linecap: butt; stroke-linejoin: miter; stroke-miterlimit: 10; fill: #FFCE47; fill-rule: nonzero; opacity: 1;" transform=" matrix(1 0 0 1 0 0) " stroke-linecap="round" />
  <path d="M 89.043 200.348 c 0 -92.208 74.749 -166.957 166.957 -166.957 v 361.346 l -66.783 -11.13 l -63.391 -78.726 C 102.82 276.269 89.043 239.92 89.043 200.348 z" style="stroke: none; stroke-width: 1; stroke-dasharray: none; stroke-linecap: butt; stroke-linejoin: miter; stroke-miterlimit: 10; fill: #FFD86C; fill-rule: nonzero; opacity: 1;" transform=" matrix(1 0 0 1 0 0) " stroke-linecap="round" />
  <path d="M 256 55.652 l -57.878 144.696 L 256 345.043 c 79.913 0 144.696 -64.782 144.696 -144.696 S 335.913 55.652 256 55.652 z" style="stroke: none; stroke-width: 1; stroke-dasharray: none; stroke-linecap: butt; stroke-linejoin: miter; stroke-miterlimit: 10; fill: #1f1147; fill-rule: nonzero; opacity: 1;" transform=" matrix(1 0 0 1 0 0) " stroke-linecap="round" />
  <path d="M 111.304 200.348 c 0 79.913 64.782 144.696 144.696 144.696 V 55.652 C 176.087 55.652 111.304 120.435 111.304 200.348 z" style="stroke: none; stroke-width: 1; stroke-dasharray: none; stroke-linecap: butt; stroke-linejoin: miter; stroke-miterlimit: 10; fill: #1f1147; fill-rule: nonzero; opacity: 1;" transform=" matrix(1 0 0 1 0 0) " stroke-linecap="round" />
  <path d="M 346.513 109.835 C 323.339 86.673 291.35 72.348 256 72.348 l -33.391 41.739 L 256 155.826 c 12.288 0 23.418 4.986 31.477 13.045 c 0.004 -0.004 53.13 -5.908 53.13 -5.908 S 346.509 109.838 346.513 109.835 z" style="stroke: none; stroke-width: 1; stroke-dasharray: none; stroke-linecap: butt; stroke-linejoin: miter; stroke-miterlimit: 10; fill: #FFCE47; fill-rule: nonzero; opacity: 1;" transform=" matrix(1 0 0 1 0 0) " stroke-linecap="round" />
  <path d="M 165.491 109.838 C 190.486 84.842 223.235 72.351 256 72.343 v 83.489 c -11.396 0 -22.793 4.344 -31.481 13.034 l -53.126 -5.902 L 165.491 109.838 z" style="stroke: none; stroke-width: 1; stroke-dasharray: none; stroke-linecap: butt; stroke-linejoin: miter; stroke-miterlimit: 10; fill: #A7CB5C; fill-rule: nonzero; opacity: 1;" transform=" matrix(1 0 0 1 0 0) " stroke-linecap="round" />
  <path d="M 128 200.348 c 0 -35.35 14.325 -67.339 37.487 -90.513 l 59.036 59.036 c -8.058 8.058 -13.045 19.189 -13.045 31.477 H 128 z" style="stroke: none; stroke-width: 1; stroke-dasharray: none; stroke-linecap: butt; stroke-linejoin: miter; stroke-miterlimit: 10; fill: #6FA953; fill-rule: nonzero; opacity: 1;" transform=" matrix(1 0 0 1 0 0) " stroke-linecap="round" />
  <path d="M 346.509 290.857 c -24.997 24.997 -57.745 37.487 -90.509 37.495 l -22.261 -41.745 L 256 244.863 c 11.396 0 22.793 -4.344 31.481 -13.034 l 53.126 5.902 L 346.509 290.857 z" style="stroke: none; stroke-width: 1; stroke-dasharray: none; stroke-linecap: butt; stroke-linejoin: miter; stroke-miterlimit: 10; fill: #FF4181; fill-rule: nonzero; opacity: 1;" transform=" matrix(1 0 0 1 0 0) " stroke-linecap="round" />
  <path d="M 384 200.348 c 0 35.35 -14.325 67.339 -37.487 90.513 l -59.036 -59.036 c 8.058 -8.058 13.045 -19.189 13.045 -31.477 l 41.739 -33.391 L 384 200.348 z" style="stroke: none; stroke-width: 1; stroke-dasharray: none; stroke-linecap: butt; stroke-linejoin: miter; stroke-miterlimit: 10; fill: #FF755C; fill-rule: nonzero; opacity: 1;" transform=" matrix(1 0 0 1 0 0) " stroke-linecap="round" />
  <path d="M 346.509 109.838 c 24.997 24.997 37.487 57.745 37.495 90.509 h -83.489 c 0 -11.396 -4.344 -22.793 -13.034 -31.481 L 346.509 109.838 z" style="stroke: none; stroke-width: 1; stroke-dasharray: none; stroke-linecap: butt; stroke-linejoin: miter; stroke-miterlimit: 10; fill: #FFB14E; fill-rule: nonzero; opacity: 1;" transform=" matrix(1 0 0 1 0 0) " stroke-linecap="round" />
  <path d="M 203.208 472.651 H 256 v -77.913 l -66.783 33.391 C 189.217 444.691 194.393 460.029 203.208 472.651 z" style="stroke: none; stroke-width: 1; stroke-dasharray: none; stroke-linecap: butt; stroke-linejoin: miter; stroke-miterlimit: 10; fill: #f28e24; fill-rule: nonzero; opacity: 1;" transform=" matrix(1 0 0 1 0 0) " stroke-linecap="round" />
  <path d="M 308.792 472.651 c 8.804 -12.622 13.991 -27.96 13.991 -44.522 L 256 394.738 v 77.913 H 308.792 z" style="stroke: none; stroke-width: 1; stroke-dasharray: none; stroke-linecap: butt; stroke-linejoin: miter; stroke-miterlimit: 10; fill: #db1f1f; fill-rule: nonzero; opacity: 1;" transform=" matrix(1 0 0 1 0 0) " stroke-linecap="round" />
  <polygon points="267.13,394.74 256,428.13 189.22,428.13 189.22,405.87 " style="stroke: none; stroke-width: 1; stroke-dasharray: none; stroke-linecap: butt; stroke-linejoin: miter; stroke-miterlimit: 10; fill: #c27234; fill-rule: nonzero; opacity: 1;" transform="  matrix(1 0 0 1 0 0) "/>
  <polygon points="256,394.74 322.78,405.87 322.78,428.13 256,428.13 " style="stroke: none; stroke-width: 1; stroke-dasharray: none; stroke-linecap: butt; stroke-linejoin: miter; stroke-miterlimit: 10; fill: #9DA6AC; fill-rule: nonzero; opacity: 1;" transform="  matrix(1 0 0 1 0 0) "/>
  <polygon points="256,383.61 267.13,394.74 256,405.87 189.22,405.87 189.22,383.61 " style="stroke: none; stroke-width: 1; stroke-dasharray: none; stroke-linecap: butt; stroke-linejoin: miter; stroke-miterlimit: 10; fill: #9DA6AC; fill-rule: nonzero; opacity: 1;" transform="  matrix(1 0 0 1 0 0) "/>
  <rect x="256" y="383.61" rx="0" ry="0" width="66.78" height="22.26" style="stroke: none; stroke-width: 1; stroke-dasharray: none; stroke-linecap: butt; stroke-linejoin: miter; stroke-miterlimit: 10; fill: #f28e24; fill-rule: nonzero; opacity: 1;" transform=" matrix(1 0 0 1 0 0) "/>
  <polygon points="256,350.61 256,286.61 213.7,275.62 171.4,286.61 " style="stroke: none; stroke-width: 1; stroke-dasharray: none; stroke-linecap: butt; stroke-linejoin: miter; stroke-miterlimit: 10; fill: #FF4181; fill-rule: nonzero; opacity: 1;" transform="  matrix(1 0 0 1 0 0) "/>
  <polygon points="256,286.61 256,222.61 171.4,286.61 " style="stroke: none; stroke-width: 1; stroke-dasharray: none; stroke-linecap: butt; stroke-linejoin: miter; stroke-miterlimit: 10; fill: #FF6196; fill-rule: nonzero; opacity: 1;" transform="  matrix(1 0 0 1 0 0) "/>
</g>
</svg>